<?xml version="1.0" encoding="utf-8"?>
<!-- Generator: Adobe Illustrator 16.2.1, SVG Export Plug-In . SVG Version: 6.00 Build 0)  -->
<!DOCTYPE svg PUBLIC "-//W3C//DTD SVG 1.1//EN" "http://www.w3.org/Graphics/SVG/1.1/DTD/svg11.dtd">
<svg version="1.1" id="Layer_1" xmlns="http://www.w3.org/2000/svg" xmlns:xlink="http://www.w3.org/1999/xlink" x="0px" y="0px"
	 width="276px" height="66px" viewBox="0 0 276 66" enable-background="new 0 0 276 66" xml:space="preserve">
<path display="none" fill="#C7C6C5" d="M-89.403,2.591h86.639v60.722h-86.639V2.591z M-92.166,65.952H0v-66h-92.166V65.952z"/>
<g id="SaxoTraderGO_DEMO_White">
	<g id="_x3C_Group_x3E_">
		<g>
			<path fill="#3A96D2" d="M17.375,43.844h3.969c4.442,0,8.379,1.496,8.379,7.254s-3.926,7.253-8.379,7.253h-3.969V43.844
				L17.375,43.844z M20.281,56.067h1.621c2.432,0,4.78-1.812,4.78-4.97s-2.348-4.969-4.78-4.969h-1.621V56.067z"/>
			<path fill="#3A96D2" d="M32.376,43.844h8.559v2.285h-5.653v3.58h5.179v2.283h-5.179v4.075h5.695v2.283h-8.6V43.844z"/>
			<path fill="#3A96D2" d="M43.935,43.844h4.652l3.454,10.992h0.042l3.454-10.992h4.652v14.507h-2.789V46.383h-0.043l-3.905,11.968
				h-2.789l-3.907-11.968l-0.041,0.042v11.926h-2.791V43.844H43.935z"/>
			<path fill="#3A96D2" d="M69.958,43.593c4.548,0,7.106,3.073,7.106,7.463s-2.516,7.548-7.106,7.548
				c-4.653,0-7.104-3.095-7.104-7.548C62.841,46.613,65.336,43.593,69.958,43.593z M69.958,56.309c2.969,0,4.074-2.643,4.074-5.253
				c0-2.559-1.19-5.18-4.074-5.18s-4.074,2.621-4.074,5.18C65.884,53.678,66.979,56.309,69.958,56.309z"/>
		</g>
	</g>
	<g id="Layer_5">
		<g>
			<path fill="#222222" d="M30.502,11.306c-1.863-0.737-2.884-1.063-4.789-1.063c-2.042,0-4.463,0.726-4.463,3.4
				c0,4.895,10.969,3.768,10.969,12.169c0,5.442-4.2,7.601-9.328,7.601c-1.79,0-3.547-0.516-5.231-1.063l0.368-3.4
				c1.242,0.516,3.431,1.242,5.305,1.242c2.084,0,5.011-1.168,5.011-4.169c0-5.706-10.969-4.127-10.969-12.063
				c0-4.537,3.579-6.947,8.19-6.947c1.685,0,3.696,0.294,5.442,0.915L30.502,11.306z"/>
			<path fill="#222222" d="M37.746,15.642c1.716-1.021,3.769-1.757,6.137-1.757c5.337,0,7.495,2.632,7.495,7.715v7.717
				c0,2.115,0.074,3.105,0.148,3.653h-3.221V30.56h-0.075c-0.799,1.136-2.631,2.852-5.778,2.852c-4.022,0-6.833-1.758-6.833-5.811
				c0-4.686,5.116-6.138,8.664-6.138c1.348,0,2.306,0,3.653,0.074c0-3.222-1.168-4.864-4.611-4.864
				c-1.938,0-4.021,0.736-5.411,1.905L37.746,15.642z M47.935,24.096c-0.727,0-1.463-0.073-2.189-0.073
				c-1.863,0-6.474,0.294-6.474,3.579c0,1.979,1.905,3.032,3.474,3.032c3.4,0,5.19-2.116,5.19-4.895V24.096z"/>
			<path fill="#222222" d="M61.357,23.212l-6.064-8.885h4.274l4.053,6.654l4.127-6.654h3.841l-6,8.885l6.58,9.759h-4.243
				l-4.61-7.317l-4.61,7.317H54.61L61.357,23.212z"/>
			<path fill="#222222" d="M83.727,13.895c5.664,0,9.464,4.095,9.464,9.759c0,5.336-3.875,9.758-9.464,9.758
				c-5.632,0-9.506-4.421-9.506-9.758C74.221,17.99,78.022,13.895,83.727,13.895z M83.727,30.633c4.021,0,5.811-3.652,5.811-6.979
				c0-3.548-2.157-6.98-5.811-6.98c-3.694,0-5.854,3.432-5.854,6.98C77.874,26.991,79.665,30.633,83.727,30.633z"/>
			<path fill="#222222" d="M103.212,10.674h-7.937v-3.21h19.517v3.221h-7.937V32.98h-3.653L103.212,10.674L103.212,10.674z"/>
			<path fill="#222222" d="M115.414,14.327h3.221v2.885h0.072c0.917-1.937,2.885-3.327,4.865-3.327c1.02,0,1.538,0.105,2.264,0.252
				v3.074c-0.622-0.252-1.316-0.327-1.907-0.327c-3.073,0-5.084,2.927-5.084,7.601v8.485h-3.431V14.327L115.414,14.327z"/>
			<path fill="#222222" d="M130.509,15.642c1.715-1.021,3.769-1.757,6.138-1.757c5.337,0,7.494,2.632,7.494,7.715v7.717
				c0,2.115,0.075,3.105,0.148,3.653h-3.221V30.56h-0.074c-0.801,1.136-2.631,2.852-5.779,2.852c-4.021,0-6.832-1.758-6.832-5.811
				c0-4.686,5.116-6.138,8.664-6.138c1.347,0,2.306,0,3.652,0.074c0-3.222-1.167-4.864-4.609-4.864
				c-1.938,0-4.022,0.736-5.413,1.905L130.509,15.642z M140.71,24.096c-0.726,0-1.465-0.073-2.191-0.073
				c-1.863,0-6.473,0.294-6.473,3.579c0,1.979,1.905,3.032,3.473,3.032c3.401,0,5.191-2.116,5.191-4.895V24.096z"/>
			<path fill="#222222" d="M163.154,30.349h-0.074c-0.916,1.391-3.033,3.074-6.358,3.074c-5.632,0-8.011-5.011-8.011-10.084
				c0-5.011,2.632-9.433,8.043-9.433c3.251,0,5.116,1.273,6.179,3h0.074V5.568h3.432v27.423h-3.295v-2.653h0.011V30.349z
				 M157.523,30.633c3.872,0,5.484-3.842,5.484-6.948c0-3.474-1.79-7.021-5.517-7.021c-3.726,0-5.19,3.505-5.116,6.906
				C152.3,26.518,153.836,30.633,157.523,30.633z"/>
			<path fill="#222222" d="M186.586,32.202c-1.314,0.474-2.81,1.21-5.884,1.21c-6.622,0-9.652-4.021-9.652-10.085
				c0-5.516,3.474-9.432,8.736-9.432c6.211,0,8.221,4.538,8.221,10.527h-13.305c0,3.695,2.883,6.211,6.138,6.211
				c2.263,0,4.895-1.168,5.737-1.863v3.432H186.586z M184.354,21.874c0-2.852-1.685-5.189-4.642-5.189
				c-3.369,0-4.749,2.78-5.011,5.189H184.354z"/>
			<path fill="#222222" d="M192.618,14.327h3.222v2.885h0.075c0.914-1.937,2.882-3.327,4.861-3.327c1.021,0,1.538,0.105,2.265,0.252
				v3.074c-0.621-0.252-1.316-0.327-1.905-0.327c-3.075,0-5.085,2.927-5.085,7.601v8.485h-3.433V14.327L192.618,14.327z"/>
			<path fill="#3A96D2" d="M229.864,11.989c-1.791-1.168-3.728-1.757-7.022-1.757c-5.884,0-9.802,4.273-9.802,9.979
				c0,6,4.317,9.979,9.611,9.979c2.527,0,3.181-0.252,4.097-0.442v-7.747h-5.37v-3h9.034v13.274
				c-1.392,0.475-3.801,1.137-7.791,1.137c-8.086,0-13.453-5.189-13.453-13.306c0-7.864,5.705-13.085,13.483-13.085
				c3.728,0,5.381,0.547,7.497,1.274L229.864,11.989z"/>
			<path fill="#3A96D2" d="M247.844,7.032c7.747,0,12.284,5.632,12.284,13.201c0,7.748-4.495,13.2-12.284,13.2
				c-7.79,0-12.285-5.442-12.285-13.2C235.559,12.664,240.096,7.032,247.844,7.032z M247.844,30.201c5.884,0,8.411-4.894,8.411-9.98
				c0-5.188-2.779-10.021-8.411-9.979c-5.632-0.042-8.411,4.791-8.411,9.979C239.443,25.307,241.959,30.201,247.844,30.201z"/>
		</g>
	</g>
</g>
</svg>
