<?xml version="1.0" encoding="utf-8"?>
<!-- Generator: Adobe Illustrator 19.1.0, SVG Export Plug-In . SVG Version: 6.00 Build 0)  -->
<svg version="1.1" id="Layer_1" xmlns="http://www.w3.org/2000/svg" xmlns:xlink="http://www.w3.org/1999/xlink" x="0px" y="0px"
	 viewBox="279.2 489.5 283.5 212.6" enable-background="new 279.2 489.5 283.5 212.6" xml:space="preserve">
<g>
	<rect x="287.7" y="595.8" fill="#1D1D1B" width="266.5" height="97.8"/>
	
		<linearGradient id="SVGID_1_" gradientUnits="userSpaceOnUse" x1="420.95" y1="597.2" x2="420.95" y2="695" gradientTransform="matrix(1 0 0 -1 0 1193.0499)">
		<stop  offset="0" style="stop-color:#9DBAD5"/>
		<stop  offset="9.994918e-02" style="stop-color:#7A9AB8"/>
		<stop  offset="0.2261" style="stop-color:#557899"/>
		<stop  offset="0.3583" style="stop-color:#365C80"/>
		<stop  offset="0.4961" style="stop-color:#1E466C"/>
		<stop  offset="0.642" style="stop-color:#0D375E"/>
		<stop  offset="0.8015" style="stop-color:#032E56"/>
		<stop  offset="1" style="stop-color:#002B53"/>
	</linearGradient>
	<rect x="287.7" y="498" fill="url(#SVGID_1_)" width="266.5" height="97.8"/>
	<path fill="#C6C6C5" d="M279.2,489.5v212.6h283.5V489.5H279.2z M554.2,693.6H287.7V498h266.5V693.6z"/>
	<path fill="#FFFFFF" d="M331.4,543.2c-7.2-2.8-10.3-4.7-10.3-8.9c0-3.1,2.7-6.5,9-6.5c2,0,3.9,0.1,10,1.7c0.4,0.1,0.7-0.1,0.9-0.5
		c0.1-0.4,1.7-6.1,1.8-6.6c0.1-0.5-0.2-0.7-0.5-0.8c-6.1-1.7-9.1-1.9-12-1.9c-11.7,0-19.1,6.7-19.1,15.6c0,7.8,5.7,12.5,14.6,15.7
		c6.9,2.5,9.6,4.9,9.6,9c0,4.4-3.5,7.4-9.9,7.4c-1.9,0-4.8-0.1-12.2-2.3c-0.4-0.1-0.8,0.1-0.9,0.5c-0.1,0.4-1.9,6.1-2.1,6.6
		c-0.1,0.5,0.1,0.8,0.5,0.9c7.6,2.4,11.3,2.6,14,2.6c14,0,20.7-7.6,20.7-16.3C345.4,551.5,340.7,546.7,331.4,543.2z M391.4,521.1
		c-0.1-0.3-0.3-0.4-0.6-0.4h-11.5c-0.3,0-0.6,0.1-0.7,0.4s-16.7,52.2-16.8,52.5c-0.1,0.4,0.1,0.9,0.6,0.9h8.6c0.4,0,0.7-0.2,0.9-0.7
		c0.2-0.5,3.7-12.2,3.7-12.2h18.5c0,0,3.8,12,3.9,12.4c0.1,0.3,0.3,0.6,0.7,0.6h9.1c0.4,0,0.9-0.3,0.7-0.9
		C408.4,573.1,391.5,521.4,391.4,521.1z M377.1,555.2c0,0,3.9-13.6,4.7-16.5c1.2-4.2,2.1-7.9,2.5-9.7c0.2-0.7,0.5-0.7,0.7,0
		c0.5,1.9,1.5,5.7,2.7,9.6c1.6,5.5,4.9,16.5,4.9,16.5L377.1,555.2L377.1,555.2z M454.2,547.8c-0.7-1.3-0.7-2.3,0.1-3.7
		c0.8-1.4,11.5-21.5,11.9-22.2c0.4-0.7,0.2-1.2-0.5-1.2h-8.3c-0.6,0-1,0.2-1.2,0.6c-0.2,0.5-6.6,13.1-9.8,19.3c-0.5,0.9-0.9,1-1.4,0
		c-3.9-8.1-9-18.5-9.3-19.1c-0.3-0.6-0.8-0.8-1.4-0.8H425c-0.7,0-1.1,0.4-0.7,1.1s12.4,21.7,12.8,22.3c0.8,1.4,0.8,2.5,0.1,3.8
		c-0.7,1.3-13.2,25-13.5,25.6c-0.3,0.6,0,1,0.5,1h8.9c0.6,0,0.9-0.2,1.2-0.7c0.3-0.6,7.6-15.1,10.6-21.1c0.4-0.8,1-0.8,1.4,0
		c1.7,3.4,10.3,20.5,10.6,21.1c0.3,0.6,0.6,0.7,1,0.7h9.7c0.6,0,0.9-0.3,0.6-1C467.9,572.9,454.9,549.1,454.2,547.8z M508.6,520
		c-15.4,0-24.2,12-24.2,27c0,16,7.7,28.5,24.2,28.5c16.5,0,24.2-12.5,24.2-28.5C532.8,532,524,520,508.6,520z M508.6,567.8
		c-11.3,0-13.7-10.6-13.7-20.9c0-9.9,2.9-19.3,13.7-19.3c10.7,0,13.7,9.4,13.7,19.3C522.3,557.3,519.9,567.8,508.6,567.8z"/>
	<path fill="#FFFFFF" d="M466.1,617.1h-7.8c-0.4,0-0.7,0.3-0.7,0.7c0,0.4,0,17.9,0,17.9c0,7.8,0.3,17.6,0.9,24.8
		c0,0.5-0.1,0.4-0.2,0c-0.6-2.1-2.8-8.3-8.5-20.3c-8-16.7-10-20.9-10.8-22.7c-0.1-0.3-0.4-0.4-0.6-0.4s-11.8,0-12.2,0
		c-0.4,0-0.7,0.3-0.7,0.7c0,0.4,0,52.4,0,52.4c0,0.4,0.3,0.7,0.7,0.7h7.6c0.4,0,0.7-0.3,0.7-0.7v-18.7c0-8.5-0.2-19.1-0.5-26.2
		c0-0.3,0.1-0.4,0.2,0c0.7,1.9,2.8,7.5,9.3,21.7c7.2,15.8,10.6,23.1,10.8,23.4c0.2,0.3,0.4,0.4,0.7,0.4h11.2c0.4,0,0.7-0.3,0.7-0.7
		c0,0,0-52.1,0-52.5C466.8,617.4,466.5,617.1,466.1,617.1z M391.4,617.5c-0.1-0.3-0.3-0.4-0.6-0.4h-11.5c-0.3,0-0.6,0.1-0.7,0.4
		s-16.7,52.2-16.8,52.5c-0.1,0.4,0.1,0.9,0.6,0.9h8.6c0.4,0,0.7-0.2,0.9-0.7c0.2-0.5,3.7-12.2,3.7-12.2h18.5c0,0,3.8,12,3.9,12.4
		c0.1,0.3,0.3,0.6,0.7,0.6h9.1c0.4,0,0.8-0.3,0.7-0.9C408.4,669.5,391.5,617.8,391.4,617.5z M377.1,651.6c0,0,3.9-13.6,4.7-16.5
		c1.2-4.2,2.1-7.9,2.5-9.7c0.2-0.7,0.5-0.7,0.7,0c0.5,1.9,1.5,5.7,2.7,9.6c1.6,5.5,4.9,16.5,4.9,16.5h-15.5V651.6z M532.3,670.2
		l-22.6-27.9c0,0,20.4-23.8,20.8-24.4c0.4-0.5,0-0.9-0.5-0.9c-0.6,0-8.7,0-8.7,0c-0.7,0-0.8,0.1-1.3,0.7
		c-0.4,0.5-18.3,21.8-18.7,22.3c-0.4,0.5-1,0.6-1-0.5v-21.8c0-0.4-0.1-0.7-0.6-0.7h-8.3c-0.5,0-0.6,0.2-0.6,0.7s0,52.4,0,52.4
		c0,0.5,0.2,0.7,0.7,0.7h8.2c0.4,0,0.6-0.3,0.6-0.7c0,0,0-24.1,0-25.1s0.5-1.2,1-0.5s18.9,25,19.3,25.6c0.4,0.6,0.7,0.7,1.3,0.7h9.8
		C532.5,671,532.5,670.6,532.3,670.2z M335.5,641.9c-0.4,0-0.4-0.2,0-0.4c4-1.3,10.4-4.8,10.4-13c0-7.3-6.6-11.4-15.7-11.4h-17.7
		c-0.4,0-0.7,0.3-0.7,0.7s0,52.5,0,52.5c0,0.5,0.3,0.7,0.7,0.7c0.5,0,16.1,0,16.1,0c12.7,0,20.5-6.6,20.5-15.9
		C349.1,647,342,642.5,335.5,641.9z M321.7,623.5h5.5c4.7,0,8.8,2.3,8.8,7c0,5-4.8,9-11.1,9h-3.3v-16H321.7z M327.1,664.5h-5.4
		v-18.4h5.3c5.9,0,11,2.9,11,9.2C338,661.2,333.1,664.5,327.1,664.5z"/>
</g>
</svg>
